<mxfile host="app.diagrams.net" agent="Mozilla/5.0 (Windows NT 10.0; Win64; x64) AppleWebKit/537.36 (KHTML, like Gecko) Chrome/134.0.0.0 Safari/537.36" version="26.2.3">
  <diagram name="PÃ¡gina-1" id="TUlWbH5-7xQ_BwGIK47H">
    <mxGraphModel dx="1298" dy="714" grid="1" gridSize="10" guides="1" tooltips="1" connect="1" arrows="1" fold="1" page="1" pageScale="1" pageWidth="827" pageHeight="1169" math="0" shadow="0">
      <root>
        <mxCell id="0" />
        <mxCell id="1" parent="0" />
        <mxCell id="Ocu0Ki5W-ycxXQ5L4Q0H-3" value="" style="whiteSpace=wrap;html=1;aspect=fixed;" vertex="1" parent="1">
          <mxGeometry x="140" y="240" width="480" height="480" as="geometry" />
        </mxCell>
        <mxCell id="Ocu0Ki5W-ycxXQ5L4Q0H-7" value="contole" style="text;html=1;align=center;verticalAlign=middle;whiteSpace=wrap;rounded=0;" vertex="1" parent="1">
          <mxGeometry x="330" y="190" width="60" height="30" as="geometry" />
        </mxCell>
        <mxCell id="Ocu0Ki5W-ycxXQ5L4Q0H-9" value="" style="whiteSpace=wrap;html=1;aspect=fixed;" vertex="1" parent="1">
          <mxGeometry x="390" y="390" width="80" height="80" as="geometry" />
        </mxCell>
        <mxCell id="Ocu0Ki5W-ycxXQ5L4Q0H-10" value="" style="whiteSpace=wrap;html=1;aspect=fixed;" vertex="1" parent="1">
          <mxGeometry x="390" y="544" width="80" height="80" as="geometry" />
        </mxCell>
        <mxCell id="Ocu0Ki5W-ycxXQ5L4Q0H-12" value="" style="shape=waypoint;sketch=0;fillStyle=solid;size=6;pointerEvents=1;points=[];fillColor=none;resizable=0;rotatable=0;perimeter=centerPerimeter;snapToPoint=1;" vertex="1" parent="1">
          <mxGeometry x="100" y="490" width="20" height="20" as="geometry" />
        </mxCell>
        <mxCell id="Ocu0Ki5W-ycxXQ5L4Q0H-22" value="" style="endArrow=none;html=1;rounded=0;exitX=1;exitY=0.5;exitDx=0;exitDy=0;exitPerimeter=0;entryX=0.059;entryY=0.261;entryDx=0;entryDy=0;entryPerimeter=0;" edge="1" parent="1" source="Ocu0Ki5W-ycxXQ5L4Q0H-12">
          <mxGeometry width="50" height="50" relative="1" as="geometry">
            <mxPoint x="210" y="580" as="sourcePoint" />
            <mxPoint x="179.92499999999995" y="500.07499999999993" as="targetPoint" />
          </mxGeometry>
        </mxCell>
        <mxCell id="Ocu0Ki5W-ycxXQ5L4Q0H-23" value="" style="shape=waypoint;sketch=0;fillStyle=solid;size=6;pointerEvents=1;points=[];fillColor=none;resizable=0;rotatable=0;perimeter=centerPerimeter;snapToPoint=1;" vertex="1" parent="1">
          <mxGeometry x="100" y="585" width="20" height="20" as="geometry" />
        </mxCell>
        <mxCell id="Ocu0Ki5W-ycxXQ5L4Q0H-24" value="" style="endArrow=none;html=1;rounded=0;exitX=1;exitY=0.5;exitDx=0;exitDy=0;exitPerimeter=0;entryX=0.059;entryY=0.261;entryDx=0;entryDy=0;entryPerimeter=0;" edge="1" parent="1" source="Ocu0Ki5W-ycxXQ5L4Q0H-23">
          <mxGeometry width="50" height="50" relative="1" as="geometry">
            <mxPoint x="210" y="675" as="sourcePoint" />
            <mxPoint x="180" y="595" as="targetPoint" />
          </mxGeometry>
        </mxCell>
        <mxCell id="Ocu0Ki5W-ycxXQ5L4Q0H-25" value="CLK" style="text;html=1;align=center;verticalAlign=middle;whiteSpace=wrap;rounded=0;" vertex="1" parent="1">
          <mxGeometry x="30" y="309" width="60" height="30" as="geometry" />
        </mxCell>
        <mxCell id="Ocu0Ki5W-ycxXQ5L4Q0H-26" value="" style="shape=waypoint;sketch=0;fillStyle=solid;size=6;pointerEvents=1;points=[];fillColor=none;resizable=0;rotatable=0;perimeter=centerPerimeter;snapToPoint=1;" vertex="1" parent="1">
          <mxGeometry x="100" y="400" width="20" height="20" as="geometry" />
        </mxCell>
        <mxCell id="Ocu0Ki5W-ycxXQ5L4Q0H-27" value="" style="endArrow=none;html=1;rounded=0;exitX=1;exitY=0.5;exitDx=0;exitDy=0;exitPerimeter=0;entryX=0.059;entryY=0.261;entryDx=0;entryDy=0;entryPerimeter=0;" edge="1" parent="1" source="Ocu0Ki5W-ycxXQ5L4Q0H-26">
          <mxGeometry width="50" height="50" relative="1" as="geometry">
            <mxPoint x="210" y="490" as="sourcePoint" />
            <mxPoint x="180" y="410" as="targetPoint" />
          </mxGeometry>
        </mxCell>
        <mxCell id="Ocu0Ki5W-ycxXQ5L4Q0H-28" value="" style="shape=waypoint;sketch=0;fillStyle=solid;size=6;pointerEvents=1;points=[];fillColor=none;resizable=0;rotatable=0;perimeter=centerPerimeter;snapToPoint=1;" vertex="1" parent="1">
          <mxGeometry x="100" y="314" width="20" height="20" as="geometry" />
        </mxCell>
        <mxCell id="Ocu0Ki5W-ycxXQ5L4Q0H-29" value="" style="endArrow=none;html=1;rounded=0;exitX=1;exitY=0.5;exitDx=0;exitDy=0;exitPerimeter=0;entryX=0.059;entryY=0.261;entryDx=0;entryDy=0;entryPerimeter=0;" edge="1" parent="1" source="Ocu0Ki5W-ycxXQ5L4Q0H-28">
          <mxGeometry width="50" height="50" relative="1" as="geometry">
            <mxPoint x="210" y="404" as="sourcePoint" />
            <mxPoint x="180" y="324" as="targetPoint" />
          </mxGeometry>
        </mxCell>
        <mxCell id="Ocu0Ki5W-ycxXQ5L4Q0H-30" value="RESET" style="text;html=1;align=center;verticalAlign=middle;whiteSpace=wrap;rounded=0;" vertex="1" parent="1">
          <mxGeometry x="30" y="395" width="60" height="30" as="geometry" />
        </mxCell>
        <mxCell id="Ocu0Ki5W-ycxXQ5L4Q0H-31" value="INSTR" style="text;html=1;align=center;verticalAlign=middle;whiteSpace=wrap;rounded=0;" vertex="1" parent="1">
          <mxGeometry x="30" y="485" width="60" height="30" as="geometry" />
        </mxCell>
        <mxCell id="Ocu0Ki5W-ycxXQ5L4Q0H-32" value="ALUFlags" style="text;html=1;align=center;verticalAlign=middle;whiteSpace=wrap;rounded=0;" vertex="1" parent="1">
          <mxGeometry x="30" y="580" width="60" height="30" as="geometry" />
        </mxCell>
        <mxCell id="Ocu0Ki5W-ycxXQ5L4Q0H-33" value="decoder" style="text;html=1;align=center;verticalAlign=middle;whiteSpace=wrap;rounded=0;" vertex="1" parent="1">
          <mxGeometry x="400" y="415" width="60" height="30" as="geometry" />
        </mxCell>
        <mxCell id="Ocu0Ki5W-ycxXQ5L4Q0H-34" value="condlogic" style="text;html=1;align=center;verticalAlign=middle;whiteSpace=wrap;rounded=0;" vertex="1" parent="1">
          <mxGeometry x="400" y="570" width="60" height="30" as="geometry" />
        </mxCell>
      </root>
    </mxGraphModel>
  </diagram>
</mxfile>
